<svg width="142" height="152" viewBox="0 0 142 152" fill="none" xmlns="http://www.w3.org/2000/svg">
<mask id="path-1-outside-1_119_42" maskUnits="userSpaceOnUse" x="6" y="29" width="130" height="92" fill="black">
<rect fill="white" x="6" y="29" width="130" height="92"/>
<path d="M10.496 120C9.55733 120 8.74667 119.659 8.064 118.976C7.38133 118.293 7.04 117.483 7.04 116.544V33.856C7.04 32.9173 7.38133 32.1067 8.064 31.424C8.74667 30.7413 9.55733 30.4 10.496 30.4H36.608C37.5467 30.4 38.3573 30.7413 39.04 31.424C39.7227 32.1067 40.064 32.9173 40.064 33.856V116.544C40.064 117.483 39.7227 118.293 39.04 118.976C38.3573 119.659 37.5467 120 36.608 120H10.496ZM57.621 120C56.6823 120 55.8717 119.659 55.189 118.976C54.5063 118.293 54.165 117.483 54.165 116.544V33.856C54.165 32.9173 54.5063 32.1067 55.189 31.424C55.8717 30.7413 56.6823 30.4 57.621 30.4H77.845C79.5517 30.4 80.789 30.784 81.557 31.552C82.325 32.32 82.837 32.9173 83.093 33.344L104.725 68.8V33.856C104.725 32.9173 105.066 32.1067 105.749 31.424C106.432 30.7413 107.242 30.4 108.181 30.4H131.349C132.288 30.4 133.098 30.7413 133.781 31.424C134.464 32.1067 134.805 32.9173 134.805 33.856V116.544C134.805 117.483 134.464 118.293 133.781 118.976C133.098 119.659 132.288 120 131.349 120H111.125C109.418 120 108.181 119.616 107.413 118.848C106.645 117.995 106.133 117.397 105.877 117.056L84.245 84.416V116.544C84.245 117.483 83.9037 118.293 83.221 118.976C82.5383 119.659 81.7277 120 80.789 120H57.621Z"/>
</mask>
<path d="M10.496 120C9.55733 120 8.74667 119.659 8.064 118.976C7.38133 118.293 7.04 117.483 7.04 116.544V33.856C7.04 32.9173 7.38133 32.1067 8.064 31.424C8.74667 30.7413 9.55733 30.4 10.496 30.4H36.608C37.5467 30.4 38.3573 30.7413 39.04 31.424C39.7227 32.1067 40.064 32.9173 40.064 33.856V116.544C40.064 117.483 39.7227 118.293 39.04 118.976C38.3573 119.659 37.5467 120 36.608 120H10.496ZM57.621 120C56.6823 120 55.8717 119.659 55.189 118.976C54.5063 118.293 54.165 117.483 54.165 116.544V33.856C54.165 32.9173 54.5063 32.1067 55.189 31.424C55.8717 30.7413 56.6823 30.4 57.621 30.4H77.845C79.5517 30.4 80.789 30.784 81.557 31.552C82.325 32.32 82.837 32.9173 83.093 33.344L104.725 68.8V33.856C104.725 32.9173 105.066 32.1067 105.749 31.424C106.432 30.7413 107.242 30.4 108.181 30.4H131.349C132.288 30.4 133.098 30.7413 133.781 31.424C134.464 32.1067 134.805 32.9173 134.805 33.856V116.544C134.805 117.483 134.464 118.293 133.781 118.976C133.098 119.659 132.288 120 131.349 120H111.125C109.418 120 108.181 119.616 107.413 118.848C106.645 117.995 106.133 117.397 105.877 117.056L84.245 84.416V116.544C84.245 117.483 83.9037 118.293 83.221 118.976C82.5383 119.659 81.7277 120 80.789 120H57.621Z" fill="black"/>
<path d="M8.064 118.976L7.35689 119.683L7.35689 119.683L8.064 118.976ZM8.064 31.424L7.35689 30.7169L7.35689 30.7169L8.064 31.424ZM39.04 31.424L38.3329 32.1311L38.3329 32.1311L39.04 31.424ZM39.04 118.976L38.3329 118.269L38.3329 118.269L39.04 118.976ZM10.496 119C9.8309 119 9.27222 118.77 8.77111 118.269L7.35689 119.683C8.22111 120.547 9.28377 121 10.496 121V119ZM8.77111 118.269C8.26999 117.768 8.04 117.209 8.04 116.544H6.04C6.04 117.756 6.49267 118.819 7.35689 119.683L8.77111 118.269ZM8.04 116.544V33.856H6.04V116.544H8.04ZM8.04 33.856C8.04 33.1909 8.26999 32.6322 8.77111 32.1311L7.35689 30.7169C6.49268 31.5811 6.04 32.6438 6.04 33.856H8.04ZM8.77111 32.1311C9.27222 31.63 9.8309 31.4 10.496 31.4V29.4C9.28377 29.4 8.22111 29.8527 7.35689 30.7169L8.77111 32.1311ZM10.496 31.4H36.608V29.4H10.496V31.4ZM36.608 31.4C37.2731 31.4 37.8318 31.63 38.3329 32.1311L39.7471 30.7169C38.8829 29.8527 37.8202 29.4 36.608 29.4V31.4ZM38.3329 32.1311C38.834 32.6322 39.064 33.1909 39.064 33.856H41.064C41.064 32.6438 40.6113 31.5811 39.7471 30.7169L38.3329 32.1311ZM39.064 33.856V116.544H41.064V33.856H39.064ZM39.064 116.544C39.064 117.209 38.834 117.768 38.3329 118.269L39.7471 119.683C40.6113 118.819 41.064 117.756 41.064 116.544H39.064ZM38.3329 118.269C37.8318 118.77 37.2731 119 36.608 119V121C37.8202 121 38.8829 120.547 39.7471 119.683L38.3329 118.269ZM36.608 119H10.496V121H36.608V119ZM55.189 118.976L54.4819 119.683L54.4819 119.683L55.189 118.976ZM55.189 31.424L54.4819 30.7169L54.4819 30.7169L55.189 31.424ZM83.093 33.344L82.2355 33.8585L82.2393 33.8648L83.093 33.344ZM104.725 68.8L103.871 69.3208L105.725 72.3591V68.8H104.725ZM105.749 31.424L106.456 32.1311L106.456 32.1311L105.749 31.424ZM107.413 118.848L106.67 119.517L106.687 119.537L106.706 119.555L107.413 118.848ZM105.877 117.056L105.043 117.608L105.06 117.633L105.077 117.656L105.877 117.056ZM84.245 84.416L85.0786 83.8636L83.245 81.097V84.416H84.245ZM83.221 118.976L82.5139 118.269L82.5139 118.269L83.221 118.976ZM57.621 119C56.9559 119 56.3972 118.77 55.8961 118.269L54.4819 119.683C55.3461 120.547 56.4088 121 57.621 121V119ZM55.8961 118.269C55.395 117.768 55.165 117.209 55.165 116.544H53.165C53.165 117.756 53.6177 118.819 54.4819 119.683L55.8961 118.269ZM55.165 116.544V33.856H53.165V116.544H55.165ZM55.165 33.856C55.165 33.1909 55.395 32.6322 55.8961 32.1311L54.4819 30.7169C53.6177 31.5811 53.165 32.6438 53.165 33.856H55.165ZM55.8961 32.1311C56.3972 31.63 56.9559 31.4 57.621 31.4V29.4C56.4088 29.4 55.3461 29.8527 54.4819 30.7169L55.8961 32.1311ZM57.621 31.4H77.845V29.4H57.621V31.4ZM77.845 31.4C79.4334 31.4 80.3526 31.7618 80.8499 32.2591L82.2641 30.8449C81.2254 29.8062 79.67 29.4 77.845 29.4V31.4ZM80.8499 32.2591C81.6116 33.0208 82.0473 33.5448 82.2355 33.8585L83.9505 32.8295C83.6267 32.2899 83.0384 31.6192 82.2641 30.8449L80.8499 32.2591ZM82.2393 33.8648L103.871 69.3208L105.579 68.2792L83.9467 32.8232L82.2393 33.8648ZM105.725 68.8V33.856H103.725V68.8H105.725ZM105.725 33.856C105.725 33.1909 105.955 32.6322 106.456 32.1311L105.042 30.7169C104.178 31.5811 103.725 32.6438 103.725 33.856H105.725ZM106.456 32.1311C106.957 31.63 107.516 31.4 108.181 31.4V29.4C106.969 29.4 105.906 29.8527 105.042 30.7169L106.456 32.1311ZM108.181 31.4H131.349V29.4H108.181V31.4ZM131.349 31.4C132.014 31.4 132.573 31.63 133.074 32.1311L134.488 30.7169C133.624 29.8527 132.561 29.4 131.349 29.4V31.4ZM133.074 32.1311C133.575 32.6322 133.805 33.1909 133.805 33.856H135.805C135.805 32.6438 135.352 31.5811 134.488 30.7169L133.074 32.1311ZM133.805 33.856V116.544H135.805V33.856H133.805ZM133.805 116.544C133.805 117.209 133.575 117.768 133.074 118.269L134.488 119.683C135.352 118.819 135.805 117.756 135.805 116.544H133.805ZM133.074 118.269C132.573 118.77 132.014 119 131.349 119V121C132.561 121 133.624 120.547 134.488 119.683L133.074 118.269ZM131.349 119H111.125V121H131.349V119ZM111.125 119C109.537 119 108.617 118.638 108.12 118.141L106.706 119.555C107.745 120.594 109.3 121 111.125 121V119ZM108.156 118.179C107.386 117.323 106.903 116.757 106.677 116.456L105.077 117.656C105.364 118.038 105.904 118.666 106.67 119.517L108.156 118.179ZM106.711 116.504L85.0786 83.8636L83.4114 84.9684L105.043 117.608L106.711 116.504ZM83.245 84.416V116.544H85.245V84.416H83.245ZM83.245 116.544C83.245 117.209 83.015 117.768 82.5139 118.269L83.9281 119.683C84.7923 118.819 85.245 117.756 85.245 116.544H83.245ZM82.5139 118.269C82.0128 118.77 81.4541 119 80.789 119V121C82.0012 121 83.0639 120.547 83.9281 119.683L82.5139 118.269ZM80.789 119H57.621V121H80.789V119Z" fill="black" mask="url(#path-1-outside-1_119_42)"/>
<line x1="35" y1="31.2" x2="58" y2="31.2" stroke="black" stroke-width="3.6"/>
<line x1="36" y1="119.2" x2="59" y2="119.2" stroke="black" stroke-width="3.6"/>
<line x1="79" y1="119.2" x2="112" y2="119.2" stroke="black" stroke-width="3.6"/>
<line x1="74" y1="31.2" x2="110" y2="31.2" stroke="black" stroke-width="3.6"/>
</svg>
