<svg width="142" height="152" viewBox="0 0 142 152" fill="none" xmlns="http://www.w3.org/2000/svg">
<path d="M10.496 120C9.55733 120 8.74667 119.659 8.064 118.976C7.38133 118.293 7.04 117.483 7.04 116.544V33.856C7.04 32.9173 7.38133 32.1067 8.064 31.424C8.74667 30.7413 9.55733 30.4 10.496 30.4H36.608C37.5467 30.4 38.3573 30.7413 39.04 31.424C39.7227 32.1067 40.064 32.9173 40.064 33.856V116.544C40.064 117.483 39.7227 118.293 39.04 118.976C38.3573 119.659 37.5467 120 36.608 120H10.496ZM57.621 120C56.6823 120 55.8717 119.659 55.189 118.976C54.5063 118.293 54.165 117.483 54.165 116.544V33.856C54.165 32.9173 54.5063 32.1067 55.189 31.424C55.8717 30.7413 56.6823 30.4 57.621 30.4H77.845C79.5517 30.4 80.789 30.784 81.557 31.552C82.325 32.32 82.837 32.9173 83.093 33.344L104.725 68.8V33.856C104.725 32.9173 105.066 32.1067 105.749 31.424C106.432 30.7413 107.242 30.4 108.181 30.4H131.349C132.288 30.4 133.098 30.7413 133.781 31.424C134.464 32.1067 134.805 32.9173 134.805 33.856V116.544C134.805 117.483 134.464 118.293 133.781 118.976C133.098 119.659 132.288 120 131.349 120H111.125C109.418 120 108.181 119.616 107.413 118.848C106.645 117.995 106.133 117.397 105.877 117.056L84.245 84.416V116.544C84.245 117.483 83.9037 118.293 83.221 118.976C82.5383 119.659 81.7277 120 80.789 120H57.621Z" fill="white"/>
<line x1="35" y1="32.2" x2="58" y2="32.2" stroke="white" stroke-width="3.6"/>
<line x1="36" y1="118.2" x2="59" y2="118.2" stroke="white" stroke-width="3.6"/>
<line x1="79" y1="118.2" x2="112" y2="118.2" stroke="white" stroke-width="3.6"/>
<line x1="78" y1="32.2" x2="111" y2="32.2" stroke="white" stroke-width="3.6"/>
</svg>
