<svg width="206" height="23" viewBox="0 0 206 23" fill="none" xmlns="http://www.w3.org/2000/svg">
<path fill-rule="evenodd" clip-rule="evenodd" d="M157.16 22.56L147.86 0.100006H150.63L158.22 18.89L165.81 0.100006H168.51L159.17 22.56H157.16ZM202.59 22.42L202.46 22.11C199.68 15.67 199.25 14.66 198.51 12.98C197.88 11.54 197.04 9.61 194.37 3.44L191.37 10.44C189.68 14.32 189.27 15.28 186.32 22.12L186.19 22.43H183.51L193.36 0H195.45L205.32 22.47L202.59 22.42ZM130.11 22.42L129.98 22.11L126.37 13.75C125.66 12.11 125.07 10.75 121.92 3.44L119.23 9.60001C117.23 14.21 116.95 14.8 113.8 22.11L113.67 22.42H111.01L120.88 0H123L132.87 22.47L130.11 22.42ZM90.94 22.42L90.79 22.21L87.14 17.21C85.85 15.45 84.56 13.7 83.28 11.94L82.7 11.15H84.94C88.23 11.15 90.36 9.42999 90.36 6.75999C90.36 4.08999 88.36 2.55 85.01 2.55H78.61V22.4H76.11V0.100006H85.11C86.2229 0.0461314 87.3351 0.219623 88.3788 0.609909C89.4224 1.0002 90.3755 1.59908 91.18 2.37C92.2744 3.5325 92.8765 5.07346 92.86 6.67C92.86 10.02 90.8 12.38 87.29 13.17L94.1 22.42H90.94ZM54 22.42L53.87 22.11L50.14 13.47C49.44 11.87 48.71 10.19 45.81 3.47L42.32 11.47C41 14.47 40.84 14.85 37.69 22.14L37.56 22.45H34.9L44.77 0H46.89L56.77 22.47L54 22.42ZM0 22.42V20.85L13.39 2.53999H0.51V0.100006H16.96V1.66L3.6 20H16.96V22.44L0 22.42Z" fill="#3F4320"/>
</svg>
